<svg width="170" height="66" viewBox="0 0 170 66" fill="none" xmlns="http://www.w3.org/2000/svg">
<path opacity="0.8" d="M54.4526 26.2258H47.0621V19.998H54.4526V26.2258ZM28.5139 45.9871H35.8199V29.8682H28.5139V45.9871ZM104.25 20.1385L104.153 19.9973H97.929V26.225H108.433L104.25 20.1385ZM21 26.2258H43.322V19.998H21V26.2258ZM113.018 32.8947L110.937 29.8658H97.929V45.9848H105.319V33.1207L114.15 45.848L114.247 45.9871H120.396V19.998H113.018V32.8947ZM74.7177 26.2258H93.3793V19.9988H74.7177V26.2258ZM62.7908 29.8666H47.0621V45.9855H54.4526V36.1029H62.7908V45.9832H70.1695V19.9941H62.7877L62.7908 29.8666ZM140.34 20.474L140.178 19.998H131.203L129.172 25.9936L132.226 24.7106L142.883 28.0501L132.226 31.3896L127.953 29.5933L122.385 45.9941H130.307L132.479 39.1077H138.903L141.074 45.9941H149L140.34 20.474ZM82.1089 36.1061H90.1151V29.8658H74.7201V45.9864H93.3817V39.7593H82.1112L82.1089 36.1061Z" fill="#EFEFE5"/>
</svg>
