<svg width="170" height="66" viewBox="0 0 170 66" fill="none" xmlns="http://www.w3.org/2000/svg">
<path opacity="0.8" fill-rule="evenodd" clip-rule="evenodd" d="M25.5761 27.7345C25.3931 28.5521 25.2328 29.2684 24.5139 30.9319C23.8883 30.7737 22.7056 30.2529 21.1919 29.5864C18.5887 28.4401 15.0066 26.8628 11.5958 25.957C14.2269 20.0647 19.8452 16 26.3537 16C31.2005 16 35.5526 18.2581 38.5464 21.8359C38.3971 21.8543 38.2479 21.8781 38.0944 21.9026C38.0715 21.9062 38.0486 21.9099 38.0255 21.9135C36.5108 22.1748 35.554 22.441 34.8266 22.6434C33.8248 22.9221 33.2581 23.0798 32.2687 22.9367C32.1816 22.9243 32.0752 22.9059 31.9528 22.8846C30.62 22.6539 27.3797 22.0928 26.2746 25.2725C25.8642 26.4477 25.7137 27.1197 25.5761 27.7345ZM24.1578 30.0781C23.7226 22.1958 21.4146 19.1261 20.9398 19.0485C20.842 21.3836 20.6625 23.0473 20.5283 24.2919C20.3457 25.9847 20.2467 26.9021 20.5508 27.6789C21.1904 29.3159 24.1578 30.0781 24.1578 30.0781ZM39.1333 22.5874C39.1283 22.5821 39.1234 22.5768 39.1201 22.5698C39.1091 22.5721 39.0981 22.5737 39.0871 22.5753C39.0705 22.5776 39.0538 22.58 39.0372 22.5851C39.032 22.5843 39.0268 22.5835 39.0215 22.5827C38.3399 22.7269 37.6773 22.9067 37.0639 23.0733L37.0638 23.0733C36.6565 23.1839 36.2708 23.2886 35.9156 23.373C33.8846 23.8599 31.9855 25.5253 31.57 28.5738C31.3892 29.9078 31.5025 30.8695 31.6211 31.8757C31.7446 32.9241 31.8739 34.0209 31.6821 35.6375C31.0782 40.7041 26.8686 42.7287 24.3861 43.9226C24.1579 44.0324 23.9442 44.1351 23.7493 44.2326C22.4107 44.896 19.1597 46.4202 16.6539 47.5846C19.3707 49.7298 22.7206 51 26.354 51C35.3881 51 42.7077 43.1671 42.7077 33.4994C42.7077 29.3782 41.3757 25.5888 39.1468 22.6038C39.1465 22.6038 39.1461 22.6037 39.1458 22.6037C39.1425 22.5973 39.1379 22.5924 39.1333 22.5874ZM10.4418 29.45C10.1517 30.7485 10 32.1034 10 33.5006C10 38.5391 11.9915 43.0765 15.1699 46.2662L20.4848 37.7769C23.8478 38.4121 25.6085 36.3586 26.0701 35.7093C26.0701 35.705 26.0676 35.7034 26.0642 35.7011C26.062 35.6996 26.0595 35.698 26.057 35.6952C23.5313 38.8002 16.6008 35.4624 12.3409 31.2354C11.6683 30.565 11.0353 29.9793 10.4418 29.45ZM64.7067 28.3672C64.0767 27.6827 63.2367 27.1122 62.1867 26.6559C61.1366 26.1995 59.7715 25.9713 58.0915 25.9713C57.2515 25.9713 56.4115 26.0853 55.6764 26.1995C54.9414 26.3135 54.2064 26.5417 53.4714 26.7699L53.1564 26.8841V20.7228L49.6912 18.555H48.8512V35.213C48.8512 36.3539 48.9562 37.3808 49.2712 38.2936C49.4812 39.2064 50.0062 40.0051 50.6363 40.8037C51.2662 41.4882 52.1063 42.0588 53.1564 42.5151C54.2064 42.9715 55.5714 43.1997 57.2515 43.1997H58.0915C59.7715 43.1997 61.1366 42.9715 62.1867 42.5151C63.2367 42.1729 64.1817 41.6024 64.8117 40.8037C65.4418 40.1191 65.8618 39.3205 66.1768 38.2936L66.1771 38.2921C66.387 37.2657 66.5968 36.2394 66.5968 35.213V33.958C66.5968 32.817 66.4918 31.7902 66.1768 30.8774C65.8618 29.8505 65.3368 29.0518 64.7067 28.3672ZM62.0817 36.1258C62.0817 36.6963 61.8716 37.1527 61.5566 37.609C61.2416 37.9514 60.8216 38.2936 60.1915 38.6359C59.5616 38.8641 58.7215 38.9782 57.6715 38.9782C56.6214 38.9782 55.7814 38.8641 55.1514 38.6359C54.5214 38.4077 54.1013 38.0654 53.7863 37.609C53.4714 37.1527 53.3663 36.6963 53.2613 36.1258C53.2613 35.9104 53.2379 35.6696 53.2133 35.4155L53.2132 35.4152L53.2132 35.4151V35.4151C53.1856 35.1307 53.1564 34.8296 53.1564 34.5284V30.9915H53.2613C53.8914 30.7633 54.6264 30.5351 55.3614 30.421C56.0964 30.3069 56.8315 30.1928 57.7765 30.1928C58.8265 30.1928 59.6666 30.3069 60.1915 30.5351C60.7166 30.7633 61.2416 31.1056 61.4516 31.4478C61.7667 31.9042 61.8716 32.3606 61.9766 32.9311C61.9766 33.1466 62 33.3875 62.0248 33.6419C62.0524 33.9262 62.0817 34.2273 62.0817 34.5284V36.1258ZM138.104 30.1918C137.79 29.3931 137.265 28.5944 136.634 28.1381C135.899 27.5676 135.06 27.1113 133.904 26.7689C132.434 26.3125 130.334 26.1984 127.919 26.3125C127.604 26.3125 127.289 26.3411 126.974 26.3696C126.659 26.3981 126.344 26.4266 126.029 26.4266C125.714 26.4837 125.399 26.5122 125.084 26.5407C124.769 26.5693 124.454 26.5978 124.139 26.6549C123.89 26.709 123.64 26.7375 123.402 26.7646C123.139 26.7947 122.889 26.8231 122.669 26.8831V31.2187C122.879 31.1617 123.115 31.1046 123.351 31.0476L123.351 31.0476C123.587 30.9905 123.824 30.9334 124.034 30.8764L125.924 30.5341C126.239 30.477 126.554 30.4485 126.869 30.4199C127.184 30.3914 127.499 30.3629 127.814 30.3059C129.599 30.1918 131.069 30.1918 131.91 30.4199C132.539 30.5341 133.064 30.7623 133.38 30.9905C133.694 31.2187 133.904 31.561 134.009 32.0174C134.115 32.3596 134.219 32.7019 134.219 33.1583V33.5005L133.904 33.3865C132.539 32.9301 130.859 32.816 128.969 32.816C127.394 32.816 126.134 32.9301 125.084 33.1583C124.034 33.3865 123.194 33.7287 122.564 34.1851C121.934 34.6416 121.514 35.098 121.304 35.6684C121.093 36.2389 120.989 36.8093 120.989 37.4939V37.8362C120.989 38.5208 121.093 39.2054 121.409 39.7759C121.619 40.3463 122.039 40.9168 122.669 41.4873C123.299 41.9436 124.139 42.4001 125.189 42.6283C126.239 42.9705 127.604 43.0847 129.179 43.0847C130.544 43.0847 131.804 42.9705 132.855 42.6283C133.86 42.4097 134.096 42.2957 134.944 41.8852L135.06 41.8296C135.375 41.6014 136.214 41.4873 136.739 41.7154L137.684 42.286H138.629V32.7019C138.629 32.1314 138.419 31.1046 138.104 30.1918ZM134.115 39.0913H134.009C132.645 39.5477 131.175 39.7759 129.494 39.7759C128.549 39.7759 127.709 39.7759 127.184 39.6617C127.036 39.6295 126.896 39.6064 126.765 39.5847C126.43 39.5295 126.15 39.4832 125.924 39.3195C125.609 39.2054 125.399 38.9772 125.294 38.749C125.189 38.5208 125.189 38.2926 125.189 38.0644C125.189 37.8362 125.189 37.7221 125.294 37.4939C125.399 37.2657 125.609 37.0375 125.819 36.9235C126.029 36.8093 126.449 36.5811 126.974 36.5811C127.499 36.4671 128.234 36.4671 129.074 36.4671C130.019 36.4671 130.859 36.4671 131.699 36.5811L131.701 36.5814C132.435 36.6955 133.169 36.8095 133.904 37.0375H134.115V39.0913ZM71.5317 18.555H71.7417C72.6868 18.555 73.3168 18.7832 73.5268 19.1255C73.8418 19.5819 74.0518 20.1524 74.0518 20.7228V21.0651C74.0518 21.7497 73.9468 22.2061 73.6317 22.6625C73.3168 23.0048 72.6868 23.233 71.7417 23.233H71.5317C70.5867 23.233 69.9566 23.1189 69.6416 22.6625C69.3266 22.2061 69.1166 21.6356 69.1166 21.0651V20.7228C69.1166 20.0383 69.3266 19.5819 69.6416 19.1255C69.9566 18.7832 70.5867 18.555 71.5317 18.555ZM69.432 26.6559V42.5152H73.8421V28.8238L70.377 26.6559H69.432ZM89.5923 33.3856C90.1173 33.6138 90.6423 33.9562 91.0624 34.2984C91.3382 34.5232 91.5688 34.7973 91.8135 35.0882L91.8136 35.0882L91.8136 35.0883L91.8136 35.0883L91.8137 35.0884C91.9415 35.2403 92.0733 35.3969 92.2174 35.5535C92.5324 36.124 92.6374 36.8086 92.6374 37.6072V37.9495C92.6374 38.6341 92.4274 39.3186 92.2174 39.8892L92.2173 39.8894C91.9023 40.4597 91.5873 41.0302 90.9573 41.4865C90.3273 41.9429 89.5923 42.3992 88.5423 42.6274C87.5972 42.9697 86.3371 43.0838 84.7621 43.0838H83.9221C82.662 43.0838 81.297 42.9697 80.142 42.8556C79.1424 42.7568 78.2215 42.5727 77.2431 42.377L77.2431 42.377L77.2426 42.3769L77.2421 42.3768L77.2379 42.3759C77.0874 42.3458 76.9356 42.3155 76.7819 42.2851V38.2917C77.9369 38.6341 79.302 38.8623 80.562 38.9763C81.927 39.0905 83.3971 39.2045 84.6572 39.2045C85.3922 39.2045 86.0222 39.2045 86.4422 39.0905C86.8622 39.0905 87.2822 38.9763 87.4923 38.8623C87.7365 38.7738 87.8545 38.6167 87.9441 38.4974L87.9441 38.4974C87.9701 38.4629 87.9936 38.4315 88.0172 38.4059C88.1222 38.2917 88.1222 38.0636 88.1222 37.9495C88.1222 37.4931 87.9123 36.9226 87.0722 36.8086C86.5472 36.6944 85.7072 36.5804 84.4471 36.5804C84.2488 36.5804 84.0271 36.5549 83.793 36.5281C83.5313 36.498 83.2542 36.4662 82.9771 36.4662C82.5283 36.4662 82.0796 36.3829 81.5653 36.2874L81.565 36.2874C81.4776 36.2712 81.3884 36.2546 81.297 36.238C81.2238 36.2221 81.1485 36.2062 81.0718 36.19C80.5983 36.0899 80.0688 35.978 79.617 35.7817C79.0919 35.5535 78.5669 35.2111 78.1469 34.8689C77.7268 34.5266 77.4118 34.0702 77.0969 33.4998C76.7819 32.9293 76.6768 32.2447 76.6768 31.446V31.1037C76.6768 30.4192 76.7819 29.7346 76.9918 29.1641C77.2019 28.5937 77.6219 28.0231 78.2519 27.5668C78.8819 27.1104 79.722 26.654 80.667 26.4258C81.717 26.0835 82.9771 25.9694 84.5521 25.9694H85.6021C86.6522 25.9694 87.8072 26.0835 88.8572 26.1976C89.9071 26.3117 90.852 26.5398 91.7969 26.7679L91.7974 26.7681V30.7614C90.6423 30.5332 89.4873 30.305 88.4372 30.191C87.2822 30.0768 86.0221 29.9628 84.7621 29.9628C83.9221 29.9628 83.2921 29.9628 82.8721 30.0768C82.452 30.0768 82.032 30.191 81.822 30.305C81.5779 30.3935 81.4599 30.5504 81.3703 30.6697L81.3702 30.6698C81.3442 30.7044 81.3206 30.7358 81.297 30.7614C81.192 30.8756 81.192 30.9896 81.192 31.2178C81.192 31.6743 81.297 32.1306 82.1371 32.3588C82.662 32.4729 83.502 32.587 84.7621 32.587C85.0771 32.7011 85.6021 32.7011 86.1272 32.7011C86.6522 32.7011 87.2822 32.8152 87.8072 32.9293L87.8089 32.9296C88.4383 33.0436 89.0678 33.1576 89.5923 33.3856ZM112.483 37.0387L108.704 26.6559H105.343L101.668 37.0387L97.8878 26.6559H94.0026V27.6827L99.6728 42.5152H103.558L107.023 32.9312L110.488 42.5152H114.374L120.148 27.6827V26.6559H116.158L112.483 37.0387ZM157.109 28.5933C157.74 29.392 158.265 30.1907 158.475 31.1034C158.789 32.1303 158.895 33.1571 159 34.184V35.4391C159 36.5801 158.789 37.6069 158.579 38.5197C158.265 39.4325 157.844 40.3452 157.215 41.0298C156.584 41.8284 155.745 42.2849 154.694 42.7413C153.644 43.1976 152.28 43.4258 150.6 43.4258C149.759 43.4258 148.92 43.3117 148.184 43.1976C147.475 43.1012 146.915 42.9234 146.315 42.733L146.314 42.7326C146.204 42.6978 146.093 42.6624 145.979 42.6271L145.664 42.5131V48.6742L142.199 50.842H141.254V34.184C141.254 33.1572 141.464 32.1304 141.674 31.1036L141.674 31.1034C141.989 30.0765 142.409 29.2779 143.039 28.5933C143.669 27.7946 144.509 27.2242 145.559 26.8819C146.609 26.4255 147.974 26.1973 149.655 26.1973H150.39C152.07 26.1973 153.434 26.4255 154.485 26.8819C155.639 27.3383 156.48 27.9088 157.109 28.5933ZM153.959 37.9492C154.275 37.4928 154.485 37.0364 154.485 36.4659C154.485 36.0095 154.485 35.4391 154.694 34.8686C154.694 34.5675 154.665 34.2664 154.638 33.982C154.613 33.7277 154.59 33.4867 154.59 33.2713C154.59 32.7007 154.379 32.2444 154.065 31.788C153.75 31.3316 153.33 30.9894 152.699 30.7612C152.07 30.533 151.229 30.4189 150.179 30.4189C149.13 30.4189 148.289 30.533 147.66 30.7612C147.029 31.1034 146.609 31.3316 146.294 31.788C145.979 32.2444 145.769 32.7007 145.769 33.2713C145.664 33.8416 145.664 34.2981 145.664 34.8684V34.8686V38.4056H145.769C146.399 38.6338 147.134 38.8619 147.869 38.9761C148.605 39.0901 149.444 39.2043 150.284 39.2043C151.335 39.2043 152.174 39.0901 152.699 38.8619C153.224 38.6338 153.644 38.4056 153.959 37.9492Z" fill="#EFEFE5"/>
</svg>
